<svg width="25" height="25" viewBox="0 0 25 25" fill="none" xmlns="http://www.w3.org/2000/svg">
<path d="M21.5552 17.8761V9.43861H3.43677V17.8761C3.43677 18.8933 3.83446 19.8688 4.54234 20.588C5.25023 21.3073 6.21033 21.7113 7.21144 21.7113H17.7805C18.7816 21.7113 19.7417 21.3073 20.4496 20.588C21.1575 19.8688 21.5552 18.8933 21.5552 17.8761ZM9.47171 12.8872C9.47171 13.1918 9.35264 13.4839 9.1407 13.6992C8.92876 13.9145 8.64131 14.0355 8.34158 14.0355C8.04184 14.0355 7.75439 13.9145 7.54245 13.6992C7.33051 13.4839 7.21144 13.1918 7.21144 12.8872C7.21144 12.5827 7.33051 12.2906 7.54245 12.0753C7.75439 11.86 8.04184 11.739 8.34158 11.739C8.64131 11.739 8.92876 11.86 9.1407 12.0753C9.35264 12.2906 9.47171 12.5827 9.47171 12.8872ZM9.47171 16.7225C9.47171 17.027 9.35264 17.3191 9.1407 17.5344C8.92876 17.7498 8.64131 17.8707 8.34158 17.8707C8.04184 17.8707 7.75439 17.7498 7.54245 17.5344C7.33051 17.3191 7.21144 17.027 7.21144 16.7225C7.21144 16.4179 7.33051 16.1259 7.54245 15.9105C7.75439 15.6952 8.04184 15.5742 8.34158 15.5742C8.64131 15.5742 8.92876 15.6952 9.1407 15.9105C9.35264 16.1259 9.47171 16.4179 9.47171 16.7225ZM13.6269 12.8872C13.6269 13.1918 13.5078 13.4839 13.2959 13.6992C13.0839 13.9145 12.7965 14.0355 12.4967 14.0355C12.197 14.0355 11.9095 13.9145 11.6976 13.6992C11.4857 13.4839 11.3666 13.1918 11.3666 12.8872C11.3666 12.5827 11.4857 12.2906 11.6976 12.0753C11.9095 11.86 12.197 11.739 12.4967 11.739C12.7965 11.739 13.0839 11.86 13.2959 12.0753C13.5078 12.2906 13.6269 12.5827 13.6269 12.8872ZM13.6269 16.7225C13.6269 17.027 13.5078 17.3191 13.2959 17.5344C13.0839 17.7498 12.7965 17.8707 12.4967 17.8707C12.197 17.8707 11.9095 17.7498 11.6976 17.5344C11.4857 17.3191 11.3666 17.027 11.3666 16.7225C11.3666 16.4179 11.4857 16.1259 11.6976 15.9105C11.9095 15.6952 12.197 15.5742 12.4967 15.5742C12.7965 15.5742 13.0839 15.6952 13.2959 15.9105C13.5078 16.1259 13.6269 16.4179 13.6269 16.7225ZM17.776 12.8872C17.776 13.1918 17.6569 13.4839 17.445 13.6992C17.233 13.9145 16.9456 14.0355 16.6459 14.0355C16.3461 14.0355 16.0587 13.9145 15.8467 13.6992C15.6348 13.4839 15.5157 13.1918 15.5157 12.8872C15.5157 12.5827 15.6348 12.2906 15.8467 12.0753C16.0587 11.86 16.3461 11.739 16.6459 11.739C16.9456 11.739 17.233 11.86 17.445 12.0753C17.6569 12.2906 17.776 12.5827 17.776 12.8872ZM21.5552 7.13747C21.5552 6.12031 21.1575 5.1448 20.4496 4.42556C19.7417 3.70631 18.7816 3.30225 17.7805 3.30225H7.21144C6.21033 3.30225 5.25023 3.70631 4.54234 4.42556C3.83446 5.1448 3.43677 6.12031 3.43677 7.13747V7.90452H21.5552V7.13747Z" fill="white"/>
</svg>
