<svg width="36" height="40" viewBox="0 0 36 40" fill="none" xmlns="http://www.w3.org/2000/svg">
<path d="M1.74674 1.81292C6.97879 3.31318 12.4142 4.63121 17.512 6.49581C20.7674 7.68653 25.3543 8.99521 27.6966 11.0932C29.451 12.6646 31.5333 14.1169 32.5309 15.901C34.7743 19.9131 33.925 23.568 31.5105 26.6035C29.4205 29.2311 25.9207 31.2298 22.9169 33.3358C21.2277 34.5201 19.5997 35.7502 17.7882 36.8555C17.2925 37.158 16.3979 37.8292 15.5414 37.8612C15.194 37.8742 14.874 37.9809 14.8837 37.9567C15.1628 37.2639 15.9446 36.7654 16.2209 36.041C16.3701 35.65 17.3525 32.173 16.8867 33.7976C16.5869 34.8431 16.2871 35.8887 15.9873 36.9342C15.6676 38.0492 22.3106 37.4898 23.1458 37.4046" stroke="#E598CB" stroke-width="3" stroke-linecap="round"/>
</svg>
